<?xml version="1.0" encoding="UTF-8" standalone="no"?>
<svg
   id="Livello_2"
   viewBox="0 0 128 128"
   version="1.1"
   sodipodi:docname="kimu-icon-128x128.svg"
   width="128"
   height="128"
   inkscape:version="1.4 (e7c3feb1, 2024-10-09)"
   xmlns:inkscape="http://www.inkscape.org/namespaces/inkscape"
   xmlns:sodipodi="http://sodipodi.sourceforge.net/DTD/sodipodi-0.dtd"
   xmlns="http://www.w3.org/2000/svg"
   xmlns:svg="http://www.w3.org/2000/svg">
  <sodipodi:namedview
     id="namedview4"
     pagecolor="#ffffff"
     bordercolor="#000000"
     borderopacity="0.25"
     inkscape:showpageshadow="2"
     inkscape:pageopacity="0.0"
     inkscape:pagecheckerboard="0"
     inkscape:deskcolor="#d1d1d1"
     inkscape:zoom="1.5142353"
     inkscape:cx="124.15507"
     inkscape:cy="86.182112"
     inkscape:window-width="1440"
     inkscape:window-height="872"
     inkscape:window-x="0"
     inkscape:window-y="28"
     inkscape:window-maximized="0"
     inkscape:current-layer="Livello_2" />
  <defs
     id="defs1">
    <style
       id="style1">.cls-1{fill:#f45e32;}.cls-2{fill:#fff463;}.cls-3{fill:#88d1e2;}.cls-4{fill:#91d292;}</style>
  </defs>
  <g
     id="g4"
     transform="translate(0,-0.83295207)">
    <g
       id="Girandola"
       transform="matrix(0.91533181,0,0,0.91533181,-1.552e-7,14)">
      <g
         id="Aste">
        <path
           class="cls-3"
           d="m 57.47,111.07 c 18.74,0 33.94,-15.19 33.94,-33.94 0,-9.65 -4.03,-18.36 -10.49,-24.54 L 47.95,109.7 c 3.02,0.88 6.22,1.36 9.53,1.36 z"
           id="path1" />
        <path
           class="cls-1"
           d="M 82.48,0 C 63.74,0 48.54,15.19 48.54,33.94 c 0,9.65 4.03,18.36 10.49,24.54 L 92.01,1.36 C 88.99,0.48 85.79,0 82.48,0 Z"
           id="path2" />
        <path
           class="cls-2"
           d="m 3.59,71.31 c 9.37,16.23 30.13,21.79 46.36,12.42 8.36,-4.82 13.88,-12.67 16,-21.36 H 0 c 0.75,3.06 1.93,6.07 3.59,8.94 z"
           id="path3" />
        <path
           class="cls-4"
           d="M 136.25,39.58 C 126.88,23.35 106.12,17.79 89.89,27.16 c -8.36,4.82 -13.88,12.67 -16,21.36 h 65.95 c -0.75,-3.06 -1.93,-6.07 -3.59,-8.94 z"
           id="path4" />
      </g>
    </g>
  </g>
</svg>
